<svg id="Capa_1" data-name="Capa 1" xmlns="http://www.w3.org/2000/svg" viewBox="0 0 400 400"><defs><style>.cls-1{fill:#ea7068;}.cls-2{fill:#e8706a;}</style></defs><rect class="cls-1" x="322.56" y="336.84" width="17.27" height="17.05"/><path class="cls-2" d="M95.72,90.73H113.9v-16H270.18l0,17,18.38-.11-.24,18.57h18.19V302.42h16v33.77h-34.2q0-8.56.07-17.13l-175.5.6q.12-9,.22-18l-17.56.22q.12-9.21.22-18.43l-17.4-.13V109.78l17.18-.36Q95.67,100.07,95.72,90.73Zm35,122.74v18.44H113.81v17.34l17.12-.66-.21,35.34h52V266.15h53.12v-16.9H182.08v-16.9h87.81V145H252.76V127.42l-17.12.22V110.08H166.28V127.2H149.15v17.34H130.93v17.79H113.81v16.9h17.12v17.12H113.81v17.78Z"/><rect class="cls-2" x="165.84" y="197.01" width="34.65" height="17.78"/><rect class="cls-2" x="235.64" y="162.11" width="18.22" height="34.9"/></svg>